<svg width="392" height="392" viewBox="0 0 392 392" fill="none" xmlns="http://www.w3.org/2000/svg">
<g opacity="0.2">
<path d="M178.103 226.329C178.376 226.408 178.662 226.512 178.988 226.59L180.017 226.772C180.746 226.902 181.54 227.072 182.425 227.202L185.303 227.41C185.836 227.443 186.371 227.443 186.904 227.41H188.61C189.203 227.376 189.794 227.311 190.381 227.215L192.242 226.967C192.88 226.863 193.544 226.681 194.156 226.538L195.146 226.303C195.483 226.243 195.815 226.151 196.135 226.03C197.502 225.606 198.842 225.097 200.146 224.507C202.963 223.244 205.592 221.596 207.958 219.611L209.78 217.984C210.392 217.437 210.913 216.786 211.499 216.187C211.786 215.887 212.059 215.575 212.345 215.262C212.632 214.95 212.853 214.598 213.114 214.26C213.608 213.583 214.155 212.958 214.611 212.216L215.913 210.015L216.238 209.455L216.512 208.869L217.085 207.672L217.645 206.487C217.84 206.083 217.931 205.693 218.087 205.302L218.947 202.88C219.856 199.554 220.321 196.121 220.327 192.672C220.327 191.826 220.236 190.98 220.184 190.134C220.184 189.717 220.184 189.3 220.079 188.832C219.975 188.363 219.936 187.998 219.858 187.595C219.702 186.774 219.611 185.941 219.389 185.147C219.168 184.353 218.947 183.571 218.738 182.79C217.809 179.827 216.468 177.009 214.754 174.418C213.965 173.211 213.095 172.058 212.15 170.968C211.945 170.695 211.719 170.438 211.473 170.2L210.77 169.471C210.301 169.002 209.859 168.507 209.39 168.078L207.958 166.854C207.518 166.451 207.053 166.077 206.565 165.734L205.158 164.77C204.741 164.459 204.306 164.173 203.856 163.911C202.958 163.416 202.112 162.948 201.252 162.531C200.393 162.114 199.677 161.867 198.987 161.58L198.023 161.177L197.151 160.916L195.758 160.513L194.599 160.174L195.719 160.643L197.021 161.19L197.867 161.541L198.778 162.023C199.429 162.362 200.146 162.726 200.901 163.143L203.257 164.692C203.715 164.97 204.15 165.284 204.559 165.63L205.861 166.658C206.317 167.019 206.752 167.406 207.163 167.817L208.465 169.119C208.895 169.562 209.273 170.057 209.702 170.538L210.327 171.267C210.549 171.509 210.754 171.765 210.939 172.036C213.525 175.468 215.466 179.342 216.668 183.467C217.507 186.469 217.945 189.569 217.97 192.686C217.937 195.9 217.477 199.096 216.603 202.19L215.796 204.495C215.676 204.894 215.533 205.285 215.366 205.667L214.871 206.734L214.377 207.802L214.129 208.349L213.83 208.856L212.606 210.914C210.899 213.524 208.854 215.896 206.525 217.971L206.109 218.361L205.666 218.7L204.768 219.39C204.202 219.862 203.606 220.297 202.984 220.692L201.148 221.864C200.536 222.228 199.846 222.528 199.273 222.853C198.058 223.472 196.806 224.015 195.523 224.481C195.224 224.61 194.915 224.714 194.599 224.793L193.675 225.079C193.063 225.249 192.464 225.457 191.865 225.6L190.094 225.939C189.537 226.071 188.971 226.167 188.401 226.225L186.761 226.395C186.227 226.395 185.719 226.538 185.212 226.525H182.386C181.527 226.525 180.72 226.382 179.991 226.316L178.962 226.225C178.649 226.225 178.35 226.121 178.077 226.069L176.657 225.822L175.473 225.6L176.618 225.939L178.103 226.329Z" fill="white"/>
<path d="M218.96 222.566L217.723 223.581L216.642 224.493L215.64 225.17C214.429 225.977 213.752 226.472 213.752 226.472C213.752 226.472 214.481 226.094 215.77 225.378L216.825 224.779L217.996 223.959C218.426 223.672 218.869 223.36 219.298 223.021C219.546 222.862 219.777 222.679 219.988 222.474L220.692 221.863L222.163 220.561L223.595 219.011L224.337 218.191C224.585 217.904 224.793 217.592 225.027 217.292L226.42 215.418C227.31 214.047 228.102 212.616 228.79 211.134C229.504 209.6 230.117 208.021 230.626 206.408C231.067 204.777 231.406 203.12 231.641 201.447C231.852 199.828 231.961 198.197 231.967 196.565C231.967 195.77 231.863 195.002 231.811 194.234C231.811 193.856 231.811 193.479 231.72 193.101C231.628 192.724 231.589 192.372 231.537 192.02C231.407 191.304 231.29 190.601 231.173 189.937C231.056 189.273 230.808 188.635 230.639 188.036C230.548 187.724 230.47 187.424 230.378 187.138C230.309 186.854 230.218 186.575 230.105 186.305L229.48 184.781L228.933 183.479L228.373 182.412C227.683 181.11 227.267 180.394 227.267 180.394C227.267 180.394 227.579 181.175 228.152 182.516C228.295 182.854 228.465 183.219 228.634 183.623L229.063 184.925L229.545 186.448C229.727 186.982 229.806 187.581 229.962 188.18C230.118 188.778 230.235 189.416 230.378 190.067C230.522 190.718 230.548 191.369 230.626 192.112C230.626 192.463 230.717 192.815 230.769 193.179C230.821 193.544 230.769 193.908 230.769 194.273C230.769 195.011 230.795 195.766 230.847 196.538C230.797 198.12 230.657 199.698 230.431 201.265C229.997 204.503 229.071 207.655 227.683 210.613C227.026 212.049 226.291 213.449 225.483 214.806L224.181 216.668C223.973 216.967 223.777 217.279 223.556 217.566L222.866 218.386L221.564 219.975L220.262 221.277C219.806 221.758 219.403 222.214 218.96 222.566Z" fill="white"/>
<path d="M358.978 186.852C357.53 186.865 356.107 187.222 354.825 187.894L342.13 175.186C338.748 151.342 329.565 128.693 315.387 109.227L320.113 100.112C321.889 100.239 323.664 99.8417 325.217 98.9705C326.771 98.0993 328.035 96.792 328.854 95.2103C329.672 93.6285 330.009 91.8415 329.823 90.0702C329.638 88.2989 328.937 86.6209 327.808 85.2435C327.45 84.801 327.054 84.3914 326.623 84.0196C325.705 83.2424 324.642 82.6546 323.496 82.29C322.35 81.9254 321.143 81.7913 319.945 81.8954C318.747 81.9995 317.581 82.3397 316.515 82.8965C315.449 83.4532 314.503 84.2155 313.733 85.1393L313.668 85.2435H293.526C271.895 66.0786 245.11 53.6913 216.499 49.6205L203.791 36.9259C204.471 35.6465 204.828 34.221 204.833 32.7724C204.822 31.4007 204.501 30.0491 203.894 28.8187C203.288 27.5882 202.411 26.5105 201.33 25.6659C200.249 24.8213 198.991 24.2317 197.651 23.9409C196.31 23.6502 194.921 23.6658 193.587 23.9867C192.254 24.3076 191.009 24.9254 189.948 25.7941C188.886 26.6628 188.034 27.76 187.455 29.0038C186.877 30.2476 186.587 31.606 186.606 32.9777C186.626 34.3494 186.954 35.699 187.568 36.9259L174.861 49.6205C146.26 53.67 119.479 66.0349 97.8468 85.1784H77.7177C77.3647 84.736 76.9725 84.3264 76.5459 83.9545C75.6276 83.1753 74.5641 82.5858 73.4166 82.2201C72.2692 81.8543 71.0607 81.7196 69.8609 81.8238C68.6611 81.9279 67.4939 82.2687 66.4266 82.8267C65.3594 83.3846 64.4132 84.1485 63.643 85.0742C63.6242 85.1107 63.6024 85.1455 63.5779 85.1784C62.4455 86.5546 61.7415 88.2327 61.553 90.005C61.3645 91.7772 61.6997 93.5658 62.5172 95.1495C63.3346 96.7332 64.5985 98.0425 66.1524 98.9153C67.7062 99.7881 69.4819 100.186 71.2597 100.06L75.986 109.174C61.7951 128.655 52.6071 151.323 49.2297 175.186L36.5351 187.894C35.3082 187.28 33.9587 186.951 32.587 186.932C31.2153 186.912 29.8569 187.203 28.613 187.781C27.3692 188.36 26.272 189.212 25.4033 190.273C24.5346 191.335 23.9168 192.579 23.596 193.913C23.2751 195.247 23.2594 196.636 23.5502 197.977C23.8409 199.317 24.4306 200.575 25.2751 201.656C26.1197 202.737 27.1974 203.613 28.4279 204.22C29.6584 204.826 31.0099 205.147 32.3817 205.159C33.8302 205.154 35.2558 204.796 36.5351 204.117L49.2297 216.825C52.6114 240.669 61.7946 263.318 75.973 282.785L69.4629 295.284C68 295.486 66.608 296.041 65.407 296.9C64.2059 297.76 63.2317 298.898 62.5683 300.218C61.9048 301.537 61.5719 302.998 61.5982 304.475C61.6246 305.951 62.0094 307.399 62.7195 308.694C63.4297 309.989 64.4439 311.092 65.6748 311.908C66.9058 312.724 68.3166 313.229 69.7858 313.379C71.2551 313.529 72.7388 313.32 74.1092 312.769C75.4795 312.218 76.6956 311.343 77.6526 310.218C78.4804 309.231 79.0845 308.076 79.4233 306.833H97.8337C119.461 326.003 146.248 338.391 174.861 342.456L187.568 355.15C186.954 356.377 186.626 357.727 186.606 359.098C186.587 360.47 186.877 361.829 187.455 363.072C188.034 364.316 188.886 365.413 189.948 366.282C191.009 367.151 192.254 367.769 193.587 368.089C194.921 368.41 196.31 368.426 197.651 368.135C198.991 367.844 200.249 367.255 201.33 366.41C202.411 365.566 203.288 364.488 203.894 363.257C204.501 362.027 204.822 360.675 204.833 359.304C204.826 357.855 204.469 356.43 203.791 355.15L216.499 342.456C245.112 338.391 271.898 326.003 293.526 306.833H313.642C313.996 307.278 314.393 307.688 314.827 308.057C315.745 308.834 316.807 309.422 317.953 309.786C319.1 310.151 320.307 310.285 321.505 310.181C322.703 310.077 323.869 309.736 324.935 309.18C326.001 308.623 326.947 307.861 327.717 306.937L327.782 306.833C328.911 305.455 329.612 303.777 329.797 302.006C329.983 300.235 329.646 298.448 328.828 296.866C328.009 295.284 326.745 293.977 325.191 293.106C323.638 292.234 321.863 291.837 320.087 291.964L315.361 282.85C329.539 263.383 338.722 240.734 342.104 216.89L354.798 204.182C356.079 204.86 357.504 205.217 358.952 205.224C361.379 205.224 363.708 204.259 365.424 202.543C367.141 200.826 368.105 198.498 368.105 196.071C368.105 193.643 367.141 191.315 365.424 189.598C363.708 187.882 361.379 186.917 358.952 186.917L358.978 186.852ZM48.3313 208.843L40.1937 200.719C41.0702 199.305 41.5345 197.675 41.5345 196.012C41.5345 194.349 41.0702 192.719 40.1937 191.305L48.3313 183.168C47.9667 187.399 47.7454 191.683 47.7454 196.005C47.7454 200.328 47.9667 204.612 48.3313 208.843ZM311.611 90.1781C311.477 91.6431 311.699 93.1189 312.259 94.4792C312.819 95.8396 313.7 97.0442 314.827 97.9902C314.996 98.1334 315.191 98.2375 315.374 98.3677L312.04 104.878C307.989 99.7189 303.605 94.8303 298.916 90.2432L311.611 90.1781ZM190.927 40.5194C192.341 41.3958 193.971 41.8602 195.634 41.8602C197.297 41.8602 198.928 41.3958 200.341 40.5194L208.466 48.657C204.234 48.2924 199.963 48.0711 195.628 48.0711C191.292 48.0711 187.021 48.2924 182.79 48.657L190.927 40.5194ZM77.6526 96.8574C79.2071 94.9952 79.965 92.5953 79.7618 90.1781H92.4304C87.7467 94.7624 83.3711 99.6512 79.3322 104.813L75.999 98.3026C76.6011 97.8824 77.1555 97.3978 77.6526 96.8574ZM79.4494 301.833C78.9513 300.073 77.9351 298.503 76.5329 297.328C75.9685 296.861 75.3473 296.467 74.684 296.156L79.3192 287.211C83.3624 292.369 87.7423 297.254 92.4304 301.833H79.4494ZM200.38 351.492C198.967 350.615 197.336 350.151 195.673 350.151C194.01 350.151 192.38 350.615 190.967 351.492L182.842 343.406C187.074 343.771 191.357 344.005 195.68 344.005C200.002 344.005 204.286 343.771 208.518 343.406L200.38 351.492ZM298.291 131.361L257.122 90.1781H271.782C283.942 98.9658 294.51 109.767 303.031 122.116L298.291 131.361ZM306.22 126.921C311.044 134.594 315.054 142.75 318.186 151.255L302.015 135.084L306.22 126.921ZM306.012 199.117C297.728 205.914 288.715 211.77 279.139 216.577L280.219 215.731C283.061 213.478 285.766 211.056 288.318 208.479C289.965 206.825 291.526 205.087 292.992 203.271C293.995 201.969 294.489 201.331 294.489 201.331C294.489 201.331 293.877 201.93 292.693 202.997C291.508 204.065 289.685 205.523 287.341 207.333C284.998 209.143 282.042 211.174 278.566 213.361C276.821 214.442 274.985 215.614 272.941 216.668C270.897 217.723 268.853 218.986 266.561 220.041L263.124 221.72C261.926 222.267 260.689 222.749 259.452 223.283L255.676 224.923L251.692 226.368L247.604 227.84L243.32 229.142L238.946 230.444L234.441 231.498L229.845 232.553C228.295 232.904 226.707 233.074 225.131 233.347L222.527 233.764C220.496 234.024 218.426 234.259 216.33 234.467C223.261 230.74 229.055 225.207 233.095 218.454C237.136 211.7 239.273 203.979 239.279 196.11C239.286 188.24 237.162 180.515 233.133 173.755C229.104 166.995 223.32 161.452 216.395 157.713C222.814 158.351 228.881 159.276 234.623 160.409L238.959 161.411L243.333 162.713L247.617 164.015L251.705 165.499L255.689 166.945L259.478 168.559C260.78 169.093 261.952 169.575 263.15 170.109L266.587 171.801C268.879 172.856 270.962 174.054 272.967 175.173C274.972 176.293 276.873 177.4 278.592 178.48C282.068 180.655 284.998 182.725 287.367 184.509C289.737 186.293 291.521 187.79 292.719 188.844C293.916 189.899 294.515 190.511 294.515 190.511C294.515 190.511 294.021 189.821 293.018 188.571C291.549 186.758 289.989 185.019 288.344 183.363C285.791 180.791 283.087 178.373 280.245 176.124C282.498 177.296 284.646 178.454 286.612 179.587C293.451 183.521 299.949 188.02 306.038 193.037L246.693 196.149L306.012 199.117ZM85.1912 193.011C93.207 186.416 101.911 180.706 111.153 175.981C108.299 178.238 105.585 180.669 103.029 183.259C101.384 184.911 99.828 186.65 98.3676 188.467C97.352 189.769 96.8703 190.407 96.8703 190.407C96.8703 190.407 97.4692 189.808 98.654 188.74C99.8388 187.673 101.662 186.214 104.018 184.405C106.375 182.595 109.317 180.564 112.794 178.376C114.539 177.309 116.361 176.137 118.406 175.069C120.45 174.002 122.507 172.765 124.785 171.71L128.236 170.017C129.421 169.484 130.67 168.989 131.907 168.468L135.683 166.84L139.68 165.395L143.769 163.924L148.052 162.622L152.414 161.32L156.932 160.265L158.416 159.927C163.685 158.937 169.227 158.152 175.043 157.57C168.099 161.294 162.294 166.83 158.245 173.59C154.196 180.35 152.054 188.08 152.047 195.96C152.041 203.84 154.169 211.574 158.207 218.34C162.244 225.107 168.04 230.653 174.978 234.389C172.556 234.141 170.186 233.868 167.856 233.542L166.241 233.295C164.653 233.022 163.064 232.839 161.528 232.501L156.932 231.446L152.414 230.392L148.052 229.09L143.769 227.853L139.68 226.368L135.683 224.923L131.907 223.309C130.605 222.775 129.421 222.293 128.236 221.759L124.785 220.067C122.507 219.012 120.424 217.814 118.406 216.707C116.387 215.601 114.499 214.468 112.794 213.387C109.317 211.213 106.375 209.143 104.018 207.359C101.662 205.575 99.8519 204.091 98.654 203.036C97.4562 201.982 96.8703 201.37 96.8703 201.37C96.8703 201.37 97.352 202.06 98.3676 203.31C99.828 205.127 101.384 206.866 103.029 208.518C105.581 211.09 108.286 213.508 111.127 215.757L112.182 216.59C109.578 215.288 107.065 213.908 104.786 212.593C97.9031 208.633 91.3694 204.095 85.2563 199.026L142.297 196.032L85.1912 193.011ZM165.708 174.861C165.707 173.256 166.162 171.683 167.02 170.327C167.878 168.97 169.103 167.885 170.554 167.197C172.005 166.51 173.621 166.249 175.214 166.444C176.807 166.639 178.312 167.282 179.554 168.3C180.796 169.317 181.724 170.665 182.229 172.189C182.734 173.713 182.796 175.348 182.408 176.906C182.02 178.464 181.198 179.879 180.037 180.988C178.876 182.096 177.424 182.852 175.85 183.168C175.996 183.645 176.074 184.14 176.085 184.639C176.088 185.561 175.853 186.469 175.403 187.273C174.952 188.078 174.301 188.753 173.513 189.232C172.725 189.711 171.827 189.978 170.905 190.008C169.983 190.038 169.069 189.828 168.252 189.401C167.435 188.973 166.742 188.342 166.241 187.567C165.74 186.793 165.447 185.903 165.392 184.982C165.336 184.061 165.519 183.142 165.924 182.313C166.328 181.484 166.94 180.774 167.7 180.251C166.422 178.745 165.717 176.836 165.708 174.861ZM198.258 220.692C204.423 217.312 209.328 212.028 212.239 205.629C215.151 199.23 215.912 192.061 214.41 185.193C212.908 178.325 209.223 172.128 203.905 167.529C198.588 162.93 191.925 160.176 184.912 159.679C191.461 157.701 198.423 157.53 205.062 159.184C211.7 160.838 217.768 164.256 222.623 169.075C227.479 173.895 230.941 179.937 232.645 186.563C234.348 193.189 234.228 200.152 232.299 206.716C230.37 213.279 226.702 219.199 221.684 223.85C216.666 228.5 210.485 231.707 203.793 233.133C197.102 234.558 190.15 234.148 183.673 231.947C177.195 229.745 171.433 225.834 166.997 220.627C171.775 223.248 177.136 224.628 182.586 224.64C188.037 224.651 193.403 223.294 198.193 220.692H198.258ZM195.745 146.594C180.195 146.544 164.688 148.225 149.511 151.607L181.28 90.1781H210.223L241.979 151.607C226.78 148.221 211.251 146.539 195.68 146.594H195.745ZM143.066 153.182C131.854 156.099 120.953 160.097 110.515 165.122L95.4771 136.035L141.321 90.1781H175.577L143.066 153.182ZM143.066 238.829L175.616 301.833H141.321L95.4771 255.989L110.515 226.902C120.933 231.918 131.812 235.913 143 238.829H143.066ZM149.576 240.404C180.028 247.084 211.566 247.084 242.018 240.404L210.262 301.833H181.201L149.576 240.404ZM248.528 238.829C259.713 235.913 270.588 231.918 281.001 226.902L296.052 255.989L250.039 301.833H215.783L248.528 238.829ZM248.528 153.182L215.978 90.1781H250.039L295.896 136.035L280.844 165.122C270.432 160.101 259.557 156.102 248.372 153.182H248.528ZM252.122 85.1784L240.404 73.4603C248.751 76.5402 256.761 80.4667 264.309 85.1784H252.122ZM245.052 85.1784H213.205L203.192 65.8175C212.285 66.3321 221.297 67.8073 230.079 70.2183L245.052 85.1784ZM207.58 85.1784H183.792L193.909 65.6482C194.495 65.6482 195.081 65.6482 195.68 65.6482C196.279 65.6482 196.865 65.6482 197.464 65.6482L207.58 85.1784ZM178.181 85.1784H146.321L161.281 70.2183C170.067 67.8063 179.084 66.3311 188.18 65.8175L178.181 85.1784ZM139.264 85.1784H127.038C134.581 80.4666 142.586 76.5401 150.93 73.4603L139.264 85.1784ZM134.264 90.1781L93.0554 131.361L88.277 122.064C96.7949 109.714 107.364 98.9116 119.525 90.126L134.264 90.1781ZM89.3707 135.084L73.1606 151.255C76.2975 142.752 80.3074 134.597 85.1261 126.921L89.3707 135.084ZM91.7794 139.759L106.102 167.374C93.2682 173.881 81.484 182.277 71.1425 192.282L70.6608 192.764C68.6427 194.795 67.6531 196.005 67.6531 196.005C67.6531 196.005 68.6427 197.216 70.6608 199.248L71.1425 199.729C81.4632 209.733 93.2252 218.133 106.036 224.65L91.7534 252.265L69.8405 230.405C63.6606 207.888 63.6606 184.123 69.8405 161.606L91.7794 139.759ZM89.3707 256.94L85.1522 265.09C80.3284 257.417 76.3182 249.261 73.1867 240.756L89.3707 256.94ZM93.0814 260.65L134.264 301.833H119.577C107.417 293.045 96.8491 282.244 88.3291 269.895L93.0814 260.65ZM139.277 306.833L150.995 318.551C142.645 315.476 134.635 311.549 127.09 306.833H139.277ZM146.347 306.833H178.168L188.18 326.207C179.084 325.682 170.068 324.203 161.281 321.793L146.347 306.833ZM183.818 306.833H207.593L197.49 326.363C196.891 326.363 196.305 326.363 195.706 326.363C195.107 326.363 194.521 326.363 193.935 326.363L183.818 306.833ZM203.205 326.207L213.231 306.833H245.065L230.079 321.793C221.292 324.203 212.276 325.682 203.179 326.207H203.205ZM240.456 318.525L252.174 306.807H264.387C256.817 311.528 248.78 315.455 240.404 318.525H240.456ZM271.808 301.833H257.122L298.304 260.65L303.083 269.895C294.551 282.251 283.964 293.053 271.782 301.833H271.808ZM313.707 295.232C312.932 296.148 312.345 297.209 311.981 298.353C311.617 299.497 311.482 300.702 311.585 301.898H298.916C303.598 297.294 307.974 292.388 312.014 287.211L315.348 293.656C314.734 294.107 314.182 294.637 313.707 295.232ZM306.233 265.155L302.015 257.005L318.199 240.821C315.063 249.304 311.053 257.437 306.233 265.09V265.155ZM321.467 230.47L299.606 252.265L285.284 224.637C311.207 211.122 323.667 195.992 323.667 195.992C323.667 195.992 311.207 180.863 285.284 167.348L299.606 139.733L321.467 161.593C327.664 184.107 327.664 207.878 321.467 230.392V230.47ZM334.279 188.727C334.188 187.529 334.083 186.201 333.966 184.73C333.89 183.126 333.699 181.529 333.393 179.952C332.781 176.54 332.091 172.621 331.31 168.234C330.086 163.95 328.888 159.12 327.261 154.055L324.214 146.243C323.68 144.941 323.186 143.508 322.587 142.141C321.988 140.774 321.22 139.446 320.53 138.066C308.937 113.695 290.399 93.2953 267.246 79.4301C244.092 65.5649 217.357 58.8534 190.4 60.139C163.444 61.4246 137.468 70.6501 115.74 86.6559C94.0112 102.662 77.4988 124.733 68.2781 150.097C67.4969 152.414 66.4553 154.654 65.8694 157.023C65.2835 159.393 64.5674 161.763 64.0205 164.106C62.5493 168.807 62.1196 173.546 61.2863 178.233L60.7264 181.762C60.6223 182.972 60.5832 184.209 60.5051 185.433C60.3619 187.881 60.2187 190.329 60.0885 192.764L59.9843 194.586V195.498V195.953C59.982 195.992 59.982 196.032 59.9843 196.071V196.279L60.1405 199.833C60.2447 202.19 60.3489 204.547 60.453 206.877C62.2723 230.979 70.3668 254.185 83.9322 274.189C97.4976 294.193 116.062 310.3 137.779 320.907L141.855 322.978C143.222 323.563 144.602 324.071 145.943 324.605L153.755 327.639C158.859 329.266 163.65 330.464 167.934 331.701L179.652 333.771C181.229 334.077 182.826 334.269 184.43 334.344L188.441 334.657L195.784 335.229L188.428 335.06L184.404 334.969C182.793 334.987 181.183 334.882 179.587 334.657L167.491 333.068C163.117 332.001 158.221 330.998 152.974 329.553L144.94 326.792C143.547 326.298 142.115 325.855 140.696 325.308L136.464 323.381C123.452 317.766 111.445 310.06 100.92 300.57C88.2714 289.413 77.7159 276.089 69.7494 261.223C60.7956 244.547 55.3625 226.209 53.7867 207.346C53.6435 204.898 53.5003 202.437 53.3701 199.964L53.1618 196.279V195.198V194.287L53.305 192.373L53.6175 185.043C53.6826 183.819 53.7086 182.595 53.8128 181.358L54.3466 177.556C55.1408 172.504 55.6486 167.296 57.0678 162.388C57.6928 159.914 58.3698 157.414 58.9687 154.927C59.5677 152.44 60.6483 150.045 61.4686 147.597C68.4352 127.778 79.7663 109.777 94.6244 94.9261C109.483 80.0747 127.488 68.7519 147.31 61.7943C166.401 54.9838 186.734 52.3594 206.929 54.0994C225.827 55.6622 244.202 61.0956 260.911 70.062C275.785 78.0322 289.122 88.5869 300.296 101.232C309.796 111.775 317.502 123.804 323.108 136.842C323.759 138.274 324.41 139.681 325.035 141.074C325.659 142.467 326.037 143.925 326.532 145.305C327.478 148.092 328.394 150.774 329.279 153.352C330.724 158.56 331.74 163.494 332.794 167.869C333.367 172.335 333.888 176.319 334.331 179.795C334.557 181.391 334.661 183.002 334.643 184.613C334.643 186.097 334.708 187.438 334.734 188.649C334.839 193.441 334.904 196.005 334.904 196.005C334.904 196.005 334.656 193.454 334.279 188.662V188.727ZM351.205 200.784L343.067 208.908C343.432 204.677 343.666 200.406 343.666 196.071C343.666 191.735 343.432 187.464 343.067 183.233L351.205 191.37C350.328 192.784 349.864 194.414 349.864 196.077C349.864 197.74 350.328 199.37 351.205 200.784Z" fill="white"/>
<path d="M376.45 191.435C375.543 191.433 374.655 191.699 373.899 192.202C373.144 192.705 372.554 193.42 372.206 194.258C371.857 195.096 371.765 196.019 371.942 196.909C372.118 197.799 372.555 198.617 373.197 199.259C373.838 199.901 374.656 200.337 375.546 200.514C376.437 200.69 377.359 200.598 378.197 200.25C379.035 199.901 379.751 199.312 380.254 198.556C380.756 197.801 381.023 196.913 381.021 196.005C381.021 194.793 380.539 193.631 379.682 192.774C378.825 191.917 377.662 191.435 376.45 191.435Z" fill="white"/>
<path d="M14.9212 191.435C14.0136 191.433 13.1257 191.699 12.37 192.202C11.6144 192.705 11.0249 193.42 10.6764 194.258C10.3279 195.096 10.2361 196.019 10.4125 196.909C10.5889 197.799 11.0257 198.617 11.6674 199.259C12.3092 199.901 13.127 200.337 14.0172 200.514C14.9075 200.69 15.83 200.598 16.668 200.25C17.506 199.901 18.2216 199.312 18.7242 198.556C19.2268 197.801 19.4938 196.913 19.4912 196.005C19.4878 194.794 19.0052 193.634 18.1489 192.777C17.2926 191.921 16.1321 191.439 14.9212 191.435Z" fill="white"/>
<path d="M186.774 274.946C188.872 276.707 191.445 277.807 194.168 278.106C196.891 278.405 199.641 277.891 202.071 276.627C204.502 275.364 206.503 273.408 207.822 271.007C209.141 268.606 209.719 265.869 209.483 263.14C209.246 260.411 208.206 257.813 206.493 255.675C204.781 253.537 202.473 251.955 199.862 251.128C197.25 250.302 194.452 250.268 191.821 251.031C189.19 251.794 186.845 253.32 185.081 255.416C183.904 256.807 183.014 258.417 182.461 260.153C181.909 261.89 181.706 263.718 181.863 265.533C182.02 267.349 182.535 269.115 183.378 270.73C184.221 272.346 185.375 273.779 186.774 274.946ZM188.909 258.658C190.034 257.32 191.531 256.346 193.21 255.858C194.889 255.371 196.675 255.392 198.342 255.919C200.008 256.446 201.481 257.456 202.575 258.82C203.668 260.185 204.332 261.843 204.483 263.584C204.634 265.326 204.265 267.073 203.423 268.606C202.581 270.138 201.304 271.386 199.753 272.192C198.202 272.999 196.446 273.327 194.708 273.136C192.971 272.945 191.329 272.242 189.99 271.118C189.1 270.371 188.367 269.456 187.831 268.426C187.295 267.395 186.968 266.269 186.868 265.112C186.767 263.955 186.896 262.789 187.246 261.682C187.597 260.574 188.162 259.547 188.909 258.658Z" fill="white"/>
<path d="M190.381 285.753C189.499 286.801 188.947 288.088 188.796 289.45C188.645 290.812 188.902 292.188 189.533 293.405C190.165 294.621 191.143 295.622 192.344 296.283C193.545 296.943 194.914 297.232 196.28 297.113C197.645 296.995 198.944 296.474 200.014 295.617C201.083 294.76 201.874 293.605 202.286 292.298C202.699 290.991 202.714 289.591 202.331 288.276C201.948 286.96 201.183 285.787 200.133 284.907C199.438 284.321 198.633 283.878 197.767 283.603C196.9 283.329 195.987 283.228 195.081 283.307C194.176 283.385 193.294 283.642 192.488 284.062C191.681 284.481 190.965 285.056 190.381 285.753Z" fill="white"/>
<path d="M195.68 113.822C192.526 113.819 189.466 114.892 187.005 116.865C184.543 118.837 182.829 121.589 182.144 124.668C181.459 127.747 181.846 130.967 183.239 133.796C184.632 136.625 186.949 138.895 189.807 140.229C192.665 141.563 195.892 141.882 198.956 141.133C202.019 140.384 204.736 138.613 206.656 136.111C208.576 133.609 209.586 130.527 209.517 127.374C209.448 124.221 208.306 121.186 206.278 118.77C204.981 117.22 203.36 115.974 201.529 115.119C199.698 114.264 197.701 113.822 195.68 113.822ZM201.344 134.446C200.004 135.575 198.359 136.281 196.618 136.474C194.877 136.668 193.117 136.34 191.562 135.533C190.007 134.726 188.727 133.476 187.882 131.941C187.038 130.406 186.668 128.655 186.82 126.909C186.971 125.164 187.637 123.503 188.733 122.136C189.829 120.769 191.305 119.758 192.976 119.231C194.647 118.704 196.436 118.684 198.118 119.175C199.8 119.665 201.299 120.643 202.425 121.986C203.924 123.785 204.652 126.105 204.45 128.439C204.248 130.772 203.131 132.932 201.344 134.446Z" fill="white"/>
<path d="M200.133 107.104C201.183 106.223 201.948 105.051 202.331 103.735C202.714 102.419 202.699 101.02 202.286 99.7127C201.874 98.4058 201.083 97.2507 200.014 96.3935C198.944 95.5363 197.645 95.0155 196.28 94.897C194.914 94.7786 193.545 95.0677 192.344 95.7279C191.143 96.3881 190.165 97.3897 189.533 98.6059C188.902 99.8222 188.645 101.198 188.796 102.56C188.947 103.923 189.499 105.209 190.381 106.258C190.965 106.955 191.681 107.529 192.488 107.949C193.294 108.369 194.176 108.625 195.081 108.704C195.987 108.783 196.9 108.682 197.767 108.407C198.633 108.133 199.438 107.69 200.133 107.104Z" fill="white"/>
</g>
</svg>
